<svg width="270" height="218" viewBox="0 0 270 218" fill="none" xmlns="http://www.w3.org/2000/svg">
<path opacity="0.86" d="M241.632 23.7896H26V163.854H241.632V23.7896Z" fill="#C9C9C9"/>
<path d="M117.525 147.857L109.336 199.869H163.96L151.397 147.857H117.525Z" fill="#C9C9C9"/>
<path opacity="0.08" d="M130.883 24.2439H142.391C142.391 24.2439 139.87 32.131 136.62 37.0004C133.37 41.8698 143.978 48.9596 143.978 48.9596L183.955 23.8667L196.389 23.7896C196.389 23.7896 210.135 49.877 199.193 60.4474C188.251 71.0178 162.843 65.0167 161.986 72.7324C161.128 80.448 177.129 95.5963 177.129 95.5963L229.001 56.4181C229.001 56.4181 239.771 63.3793 230.339 70.4863C220.906 77.5932 196.115 121.169 179.359 121.529C162.603 121.889 158.024 115.254 161.737 131.86H136.011L129.726 68.5402L121.236 48.9596L126.587 26.4986L130.883 24.2439Z" fill="black"/>
<path opacity="0.45" d="M135.136 218C184.556 218 224.619 213.287 224.619 207.472C224.619 201.658 184.556 196.945 135.136 196.945C85.7168 196.945 45.6543 201.658 45.6543 207.472C45.6543 213.287 85.7168 218 135.136 218Z" fill="#E6E6E6"/>
<path opacity="0.58" d="M193.669 196.757C193.669 196.757 185.908 194.64 184.236 187.421C184.236 187.421 196.242 184.995 196.602 197.4L193.669 196.757Z" fill="#16A34A"/>
<path opacity="0.73" d="M194.622 195.977C194.622 195.977 189.202 187.405 193.97 179.397C193.97 179.397 203.103 185.201 199.047 195.995L194.622 195.977Z" fill="#16A34A"/>
<path d="M196.012 195.976C196.012 195.976 198.876 186.932 207.537 185.217C207.537 185.217 209.157 191.09 201.929 196.002L196.012 195.976Z" fill="#16A34A"/>
<path d="M190.387 195.78L191.965 206.531L201.869 206.574L203.327 195.832L190.387 195.78Z" fill="#24285B"/>
<path d="M220.125 57.3525C220.125 57.3525 225.536 51.3515 229.429 51.6858C233.322 52.0202 235.432 59.4015 223.298 63.7994L220.125 57.3525Z" fill="#F4A28C"/>
<path d="M269.999 0H219.543V43.259H269.999V0Z" fill="#C9C9C9"/>
<path d="M160.925 55.7754L179.319 86.5436L219.15 57.7386L226.302 63.131L186.685 105.558C185.299 107.04 183.618 108.214 181.75 109.003C179.881 109.793 177.868 110.181 175.84 110.142C173.812 110.103 171.814 109.639 169.977 108.778C168.141 107.917 166.506 106.68 165.178 105.147L145.455 82.2914L160.925 55.7754Z" fill="#16A34A"/>
<path opacity="0.46" d="M160.925 55.7754L179.319 86.5436L219.15 57.7386L226.302 63.131L186.685 105.558C185.299 107.04 183.618 108.214 181.75 109.003C179.881 109.793 177.868 110.181 175.84 110.142C173.812 110.103 171.814 109.639 169.977 108.778C168.141 107.917 166.506 106.68 165.178 105.147L145.455 82.2914L160.925 55.7754Z" fill="white"/>
<path d="M241.632 131.86H26V163.854H241.632V131.86Z" fill="#E6E6E6"/>
<path d="M135.018 154.604C139.802 154.604 143.679 150.727 143.679 145.945C143.679 141.163 139.802 137.287 135.018 137.287C130.235 137.287 126.357 141.163 126.357 145.945C126.357 150.727 130.235 154.604 135.018 154.604Z" fill="#A5A5A5"/>
<path d="M173.69 190.756H96.8652V207.473H173.69V190.756Z" fill="#E6E6E6"/>
<path d="M130.761 22.8554C130.761 22.8554 131.439 28.8564 130.53 32.8342C130.35 33.6163 129.867 34.295 129.187 34.7211C128.506 35.1471 127.685 35.2856 126.902 35.1061C124.887 34.6174 122.315 33.3915 121.56 30.2281L119.631 25.0243C119.352 23.9427 119.418 22.8014 119.817 21.7584C120.216 20.7155 120.93 19.8225 121.86 19.2033C125.187 16.7257 130.53 19.2033 130.761 22.8554Z" fill="#F4A28C"/>
<path d="M120.736 26.4985L115.883 45.5733L126.585 47.5022L125.821 32.8511L120.736 26.4985Z" fill="#F4A28C"/>
<path d="M118.981 29.6963C118.984 29.8233 119.029 29.9456 119.11 30.0436C119.191 30.1415 119.303 30.2094 119.427 30.2364C120.271 30.4527 121.162 30.3862 121.965 30.0471C122.767 29.7079 123.436 29.1148 123.869 28.3589C124.386 27.5298 124.648 26.5674 124.624 25.5907C124.599 24.6141 124.289 23.666 123.731 22.8636C125.563 23.1763 127.426 23.2713 129.28 23.1466C129.904 23.1097 130.518 22.9707 131.098 22.7351L132.53 18.1828C132.53 18.1828 134.888 13.622 132.212 12.7047C129.537 11.7874 128.345 14.848 126.15 12.7047C123.954 10.5615 123.448 9.76422 121.236 10.9902C119.024 12.2161 121.596 13.9392 117.952 13.9907C114.307 14.0421 114.256 15.5509 114.256 17.2055C114.341 17.7713 114.591 18.2993 114.976 18.7229C117.465 21.8502 118.871 25.7013 118.981 29.6963Z" fill="#24285B"/>
<path d="M124.512 28.1619C124.512 28.1619 124.384 25.8558 122.669 26.0787C120.954 26.3015 121.065 29.6364 123.432 29.8936L124.512 28.1619Z" fill="#F4A28C"/>
<path d="M130.993 26.644L132.708 28.9073C132.808 29.0362 132.872 29.1882 132.897 29.3491C132.921 29.5099 132.904 29.6744 132.848 29.8269C132.791 29.9795 132.697 30.1151 132.573 30.2212C132.45 30.3273 132.302 30.4002 132.142 30.4333L129.861 30.9305L130.993 26.644Z" fill="#F4A28C"/>
<path opacity="0.31" d="M125.891 34.7974C125.891 34.7974 124.511 34.5659 122.032 32.3198C122.032 32.3198 121.672 36.2291 126.148 39.1096L125.891 34.7974Z" fill="#CE8172"/>
<path d="M88.4256 62.7797C88.9259 58.8803 90.6786 55.2486 93.4203 52.4304C96.1619 49.6122 99.7445 47.7596 103.629 47.1512C115.549 45.2652 134.5 43.9364 152.508 49.7231C181.878 59.1533 146.934 121.521 146.934 121.521H103.887C103.887 121.521 84.4553 94.2937 88.4256 62.7797Z" fill="#16A34A"/>
<path d="M103.889 121.53L107.465 131.86H151.198L146.979 121.53H103.889Z" fill="#24285B"/>
<path d="M141.061 56.3412L146.592 70.4865L151.214 68.0604L146.592 55.7754L141.061 56.3412Z" fill="#FFD200"/>
<path opacity="0.08" d="M106.96 55.6636C106.96 55.6636 122.609 66.8684 114.463 87.3834L148.549 59.8472C148.549 59.8472 155.41 66.7912 145.419 73.7953C135.429 80.7994 136.373 108.713 121.237 121.572H103.89L99.8852 111.499L96.4551 81.2452L106.96 55.6636Z" fill="black"/>
<path opacity="0.4" d="M141.061 56.3412L146.592 70.4865L151.214 68.0604L146.592 55.7754L141.061 56.3412Z" fill="white"/>
<path d="M139.252 62.0937C139.252 62.0937 144.654 56.0927 148.547 56.427C152.441 56.7614 154.55 64.1427 142.425 68.5406L139.252 62.0937Z" fill="#F4A28C"/>
<path d="M144.021 43.894L182.387 20.9614L190.962 55.7761H146.594L144.021 43.894Z" fill="#FFD200"/>
<path d="M144.021 43.8936L134.297 47.237L137.298 57.7388L146.594 55.7756L144.021 43.8936Z" fill="#FFD200"/>
<path opacity="0.08" d="M144.021 43.8936L134.297 47.237L137.298 57.7388L146.594 55.7756L144.021 43.8936Z" fill="black"/>
<path d="M262.685 111.773H205.66V148.971H262.685V111.773Z" fill="#FFD200"/>
<path d="M58.8858 4.70654H9.70703V51.2489H58.8858V4.70654Z" fill="#24285B"/>
<path d="M225.305 120.373V140.374L246.125 129.1L225.305 120.373Z" fill="white"/>
<path d="M38.8551 17.1287C37.5287 17.1166 36.2387 17.5616 35.202 18.3889C34.3223 19.0893 33.5981 19.9652 33.0754 20.9608C32.5498 19.9671 31.826 19.0918 30.9487 18.3889C29.916 17.5665 28.6331 17.1219 27.3128 17.1287C23.5912 17.1287 20.7871 20.172 20.7871 24.2099C20.7871 28.5649 24.2858 31.5483 29.5853 36.0662C30.4428 36.8378 31.5061 37.7037 32.5694 38.6381C32.7077 38.7634 32.8888 38.8309 33.0754 38.8267C33.2617 38.8292 33.4421 38.7619 33.5813 38.6381C34.6361 37.7122 35.6565 36.8464 36.5655 36.0662C41.8649 31.5483 45.3636 28.5649 45.3636 24.2099C45.3808 20.1549 42.5767 17.1287 38.8551 17.1287Z" fill="white"/>
<path opacity="0.72" d="M219.551 34.557L235.329 9.84131L244.77 32.3709L255.112 13.9306L269.999 36.1516V43.2586H219.551V34.557Z" fill="white"/>
<path d="M245.774 15.9887C248.165 15.9887 250.104 14.0504 250.104 11.6594C250.104 9.26838 248.165 7.33008 245.774 7.33008C243.382 7.33008 241.443 9.26838 241.443 11.6594C241.443 14.0504 243.382 15.9887 245.774 15.9887Z" fill="white"/>
<path d="M107.627 58.1241C107.332 56.2855 106.544 54.5613 105.347 53.1353C104.149 51.7093 102.587 50.6349 100.826 50.0269C99.066 49.4188 97.1735 49.2998 95.3508 49.6826C93.528 50.0653 91.8434 50.9355 90.4765 52.2002C88.2337 54.2773 86.4612 56.81 85.278 59.6282C84.0948 62.4464 83.5283 65.4851 83.6163 68.5402C83.8307 86.3805 83.1876 115.1 97.551 120.458C111.914 125.816 142.391 68.5402 142.391 68.5402L139.218 62.0934L102.85 92.3901C102.85 92.3901 109.805 73.0753 107.627 58.1241Z" fill="#16A34A"/>
<path opacity="0.46" d="M107.627 58.1241C107.332 56.2855 106.544 54.5613 105.347 53.1353C104.149 51.7093 102.587 50.6349 100.826 50.0269C99.066 49.4188 97.1735 49.2998 95.3508 49.6826C93.528 50.0653 91.8434 50.9355 90.4765 52.2002C88.2337 54.2773 86.4612 56.81 85.278 59.6282C84.0948 62.4464 83.5283 65.4851 83.6163 68.5402C83.8307 86.3805 83.1876 115.1 97.551 120.458C111.914 125.816 142.391 68.5402 142.391 68.5402L139.218 62.0934L102.85 92.3901C102.85 92.3901 109.805 73.0753 107.627 58.1241Z" fill="white"/>
<path d="M191.602 55.6725C195.414 54.7526 196.614 46.1754 194.281 36.5147C191.949 26.854 186.968 19.7682 183.156 20.688C179.344 21.6078 178.145 30.1851 180.477 39.8457C182.81 49.5064 187.791 56.5923 191.602 55.6725Z" fill="#FFD200"/>
<path opacity="0.4" d="M191.602 55.6725C195.414 54.7526 196.614 46.1754 194.281 36.5147C191.949 26.854 186.968 19.7682 183.156 20.688C179.344 21.6078 178.145 30.1851 180.477 39.8457C182.81 49.5064 187.791 56.5923 191.602 55.6725Z" fill="white"/>
<path d="M179.872 32.268C179.679 32.32 179.492 32.3918 179.314 32.4823C179.588 38.195 180.996 43.7962 183.456 48.9595C183.601 48.9521 183.744 48.932 183.885 48.8995C186.329 48.3079 187.409 44.1072 186.303 39.4692C185.197 34.8313 182.316 31.6765 179.872 32.268Z" fill="#FFD200"/>
<path opacity="0.08" d="M179.872 32.268C179.679 32.32 179.492 32.3918 179.314 32.4823C179.588 38.195 180.996 43.7962 183.456 48.9595C183.601 48.9521 183.744 48.932 183.885 48.8995C186.329 48.3079 187.409 44.1072 186.303 39.4692C185.197 34.8313 182.316 31.6765 179.872 32.268Z" fill="black"/>
<path d="M56.1773 74.979H0.00976562V112.657H56.1773V74.979Z" fill="#E6E6E6"/>
<path d="M0 74.979L28.0838 101.684L56.1676 74.979H0Z" fill="#C9C9C9"/>
</svg>
