<svg width="406" height="306" viewBox="0 0 406 306" fill="none" xmlns="http://www.w3.org/2000/svg">
<path d="M296.381 158.359C296.381 158.359 311.433 155.923 310.418 165.129H296.381V158.359Z" fill="#F4A28C"/>
<path d="M262.967 141.612L258.42 163.688H283.957L280.476 138.313L262.967 141.612Z" fill="#C9C9C9"/>
<path d="M322.04 70.3486H220.732V139.155H322.04V70.3486Z" fill="#24285B"/>
<path d="M288.199 115.841H256.328V118.835H288.199V115.841Z" fill="#16A34A"/>
<path d="M302.398 123.697H270.527V126.691H302.398V123.697Z" fill="#FFD200"/>
<path d="M322.04 133.238H220.732V146.26H322.04V133.238Z" fill="#E6E6E6"/>
<path d="M275.4 108.604H248.654V111.598H275.4V108.604Z" fill="#16A34A"/>
<path d="M307.708 108.604H280.963V111.598H307.708V108.604Z" fill="#16A34A"/>
<path d="M280.242 100.271H256.328V103.265H280.242V100.271Z" fill="#FFD200"/>
<path d="M310.376 100.271H286.463V103.265H310.376V100.271Z" fill="#FFD200"/>
<path d="M250.725 115.841H238.738V118.835H250.725V115.841Z" fill="white"/>
<path d="M262.661 123.697H250.674V126.691H262.661V123.697Z" fill="white"/>
<path d="M243.052 108.604H231.064V111.598H243.052V108.604Z" fill="white"/>
<path opacity="0.14" d="M233.967 94.5057C233.967 94.5057 283.458 89.5322 272.537 146.271L276.302 160.105L260.854 151.721L262.092 146.281H253.912L233.967 94.5057Z" fill="black"/>
<path d="M233.967 78.5195C234.747 78.5195 235.378 77.8878 235.378 77.1086C235.378 76.3294 234.747 75.6978 233.967 75.6978C233.188 75.6978 232.557 76.3294 232.557 77.1086C232.557 77.8878 233.188 78.5195 233.967 78.5195Z" fill="#16A34A"/>
<path d="M237.926 78.5195C238.706 78.5195 239.337 77.8878 239.337 77.1086C239.337 76.3294 238.706 75.6978 237.926 75.6978C237.147 75.6978 236.516 76.3294 236.516 77.1086C236.516 77.8878 237.147 78.5195 237.926 78.5195Z" fill="#FFD200"/>
<path d="M243.052 85.8374H231.064V88.8316H243.052V85.8374Z" fill="white"/>
<path d="M250.725 93.3281H238.738V96.3224H250.725V93.3281Z" fill="white"/>
<path d="M280.242 93.3281H256.328V96.3224H280.242V93.3281Z" fill="#FFD200"/>
<path d="M310.376 93.3281H286.463V96.3224H310.376V93.3281Z" fill="#FFD200"/>
<path d="M250.725 100.271H238.738V103.265H250.725V100.271Z" fill="white"/>
<path d="M272.537 85.8374H247.842V88.8316H272.537V85.8374Z" fill="#16A34A"/>
<path d="M295.232 85.8374H277.703V88.8316H295.232V85.8374Z" fill="#16A34A"/>
<path d="M272.537 143.053C274.617 143.053 276.303 141.367 276.303 139.287C276.303 137.207 274.617 135.521 272.537 135.521C270.457 135.521 268.771 137.207 268.771 139.287C268.771 141.367 270.457 143.053 272.537 143.053Z" fill="#A5A5A5"/>
<path d="M129.219 160.135H78.2969V163.688H129.219V160.135Z" fill="#C9C9C9"/>
<path d="M98.5963 158.359C98.5963 158.359 83.5439 155.923 84.5589 165.129H98.5963V158.359Z" fill="#F4A28C"/>
<path d="M126.59 141.612L122.043 163.688H147.58L144.099 138.313L126.59 141.612Z" fill="#C9C9C9"/>
<path d="M181.42 70.3486H80.1133V139.155H181.42V70.3486Z" fill="#24285B"/>
<path d="M147.582 115.841H115.711V118.835H147.582V115.841Z" fill="#16A34A"/>
<path d="M181.42 133.238H80.1133V146.26H181.42V133.238Z" fill="#E6E6E6"/>
<path d="M134.782 108.604H108.037V111.598H134.782V108.604Z" fill="#16A34A"/>
<path d="M139.624 100.271H115.711V103.265H139.624V100.271Z" fill="#FFD200"/>
<path d="M110.106 115.841H98.1191V118.835H110.106V115.841Z" fill="white"/>
<path d="M122.044 123.697H110.057V126.691H122.044V123.697Z" fill="white"/>
<path d="M102.434 108.604H90.4473V111.598H102.434V108.604Z" fill="white"/>
<path d="M89.1569 78.5195C89.9361 78.5195 90.5678 77.8878 90.5678 77.1086C90.5678 76.3294 89.9361 75.6978 89.1569 75.6978C88.3778 75.6978 87.7461 76.3294 87.7461 77.1086C87.7461 77.8878 88.3778 78.5195 89.1569 78.5195Z" fill="white"/>
<path d="M93.3503 78.5195C94.1295 78.5195 94.7612 77.8878 94.7612 77.1086C94.7612 76.3294 94.1295 75.6978 93.3503 75.6978C92.5711 75.6978 91.9395 76.3294 91.9395 77.1086C91.9395 77.8878 92.5711 78.5195 93.3503 78.5195Z" fill="#16A34A"/>
<path d="M97.3073 78.5195C98.0865 78.5195 98.7182 77.8878 98.7182 77.1086C98.7182 76.3294 98.0865 75.6978 97.3073 75.6978C96.5281 75.6978 95.8965 76.3294 95.8965 77.1086C95.8965 77.8878 96.5281 78.5195 97.3073 78.5195Z" fill="#FFD200"/>
<path d="M102.434 85.8374H90.4473V88.8316H102.434V85.8374Z" fill="white"/>
<path d="M110.106 93.3281H98.1191V96.3224H110.106V93.3281Z" fill="white"/>
<path d="M139.624 93.3281H115.711V96.3224H139.624V93.3281Z" fill="#FFD200"/>
<path d="M110.106 100.271H98.1191V103.265H110.106V100.271Z" fill="white"/>
<path d="M131.92 85.8374H107.225V88.8316H131.92V85.8374Z" fill="#16A34A"/>
<path opacity="0.45" d="M199.001 267.786C289.533 267.786 362.923 258.275 362.923 246.542C362.923 234.81 289.533 225.298 199.001 225.298C108.469 225.298 35.0781 234.81 35.0781 246.542C35.0781 258.275 108.469 267.786 199.001 267.786Z" fill="#E6E6E6"/>
<path d="M174.195 92.2422C174.195 92.2422 138.863 94.668 136.153 114.288C134.65 125.189 137.635 135.045 140.588 141.693C141.038 142.703 141.247 143.804 141.196 144.909C141.146 146.013 140.839 147.091 140.299 148.056C139.758 149.021 139.001 149.846 138.085 150.467C137.17 151.087 136.122 151.486 135.026 151.63L98.5977 156.705V165.18L149.287 163.678C154.429 163.526 159.337 161.492 163.079 157.961C166.821 154.431 169.136 149.65 169.587 144.525L174.195 92.2422Z" fill="#16A34A"/>
<path d="M220.732 92.2422C220.732 92.2422 256.065 94.668 258.775 114.288C260.277 125.189 257.293 135.045 254.339 141.693C253.889 142.703 253.681 143.804 253.731 144.909C253.781 146.013 254.089 147.091 254.629 148.056C255.169 149.021 255.927 149.846 256.842 150.467C257.757 151.087 258.805 151.486 259.901 151.63L296.33 156.705V165.18L245.63 163.627C240.489 163.473 235.582 161.438 231.841 157.908C228.099 154.378 225.783 149.598 225.33 144.474L220.732 92.2422Z" fill="#16A34A"/>
<path opacity="0.46" d="M174.195 92.2422C174.195 92.2422 138.863 94.668 136.153 114.288C134.65 125.189 137.635 135.045 140.588 141.693C141.038 142.703 141.247 143.804 141.196 144.909C141.146 146.013 140.839 147.091 140.299 148.056C139.758 149.021 139.001 149.846 138.085 150.467C137.17 151.087 136.122 151.486 135.026 151.63L98.5977 156.705V165.18L149.287 163.678C154.429 163.526 159.337 161.492 163.079 157.961C166.821 154.431 169.136 149.65 169.587 144.525L174.195 92.2422Z" fill="white"/>
<path opacity="0.46" d="M220.732 92.2422C220.732 92.2422 256.065 94.668 258.775 114.288C260.277 125.189 257.293 135.045 254.339 141.693C253.889 142.703 253.681 143.804 253.731 144.909C253.781 146.013 254.089 147.091 254.629 148.056C255.169 149.021 255.927 149.846 256.842 150.467C257.757 151.087 258.805 151.486 259.901 151.63L296.33 156.705V165.18L245.63 163.627C240.489 163.473 235.582 161.438 231.841 157.908C228.099 154.378 225.783 149.598 225.33 144.474L220.732 92.2422Z" fill="white"/>
<path d="M331.205 171.524H64.7676V246.553H331.205V171.524Z" fill="#C9C9C9"/>
<path d="M331.205 163.688H64.7676V182.029H331.205V163.688Z" fill="#E6E6E6"/>
<path d="M194.199 92.242L198.513 73.4341C198.513 73.4341 198.655 64.6239 204.309 66.6742C209.962 68.7245 211.657 78.9354 208.612 82.3864C205.567 85.8374 203.537 81.1278 203.537 81.1278V91.5315L194.199 92.242Z" fill="#F4A28C"/>
<path opacity="0.1" d="M268.772 164.317C268.772 164.317 245.356 169.301 255.141 178.751C264.926 188.2 259.526 201.487 252.746 205.323C245.965 209.16 217.88 213.788 226.853 246.157H195.195L192.861 228.902L172.561 207.465L181.432 186.789L206.39 152.858L223.3 166.875L232.557 163.688L268.772 164.317Z" fill="black"/>
<path d="M188.567 91.3792C188.567 91.3792 153.347 88.2429 148.749 112.024C144.151 135.806 176.925 180.689 176.925 180.689L222.6 178.913C222.6 178.913 293.559 79.2398 188.567 91.3792Z" fill="#16A34A"/>
<path d="M192.85 228.871C192.85 228.871 194.88 231.551 193.55 234.088C192.22 236.626 194.139 238.778 196.148 237.012C198.158 235.246 198.99 227.877 198.99 227.877L194.453 225.228L192.85 228.871Z" fill="#16A34A"/>
<path d="M176.924 180.689C176.924 180.689 173.879 196.675 180.731 197.437C187.582 198.198 236.048 200.36 244.168 193.569C252.288 186.779 250.258 177.39 222.599 178.913L176.924 180.689Z" fill="#24285B"/>
<path d="M176.528 183.45C176.528 183.45 155.356 199.995 166.267 212.175C177.178 224.355 192.911 231.46 192.911 231.46L195.194 225.623C195.194 225.623 162.207 199.995 193.418 194.92L176.528 183.45Z" fill="#24285B"/>
<path d="M203.628 129.604H191.174C178.349 129.604 167.951 140.002 167.951 152.828C167.951 165.654 178.349 176.051 191.174 176.051H203.628C216.454 176.051 226.852 165.654 226.852 152.828C226.852 140.002 216.454 129.604 203.628 129.604Z" fill="#FFD200"/>
<path d="M202.939 152.828H191.348V199.345H202.939V152.828Z" fill="#FFD200"/>
<path opacity="0.08" d="M202.939 152.828H191.348V199.345H202.939V152.828Z" fill="black"/>
<path d="M220.731 193.569H174.193V207.465H220.731V193.569Z" fill="#FFD200"/>
<path d="M195.53 79.595L195.602 75.1391C195.632 74.1136 195.455 73.0925 195.082 72.1368C194.709 71.1811 194.147 70.3105 193.429 69.5769C193.134 69.3469 192.887 69.0607 192.703 68.735C192.518 68.4092 192.4 68.0502 192.355 67.6786C192.31 67.307 192.338 66.9301 192.439 66.5696C192.54 66.2091 192.711 65.8721 192.942 65.5778C195.277 62.2385 197.246 64.4004 199.601 61.4468C201.955 58.4931 203.732 57.9146 206.482 61.4468C209.233 64.979 211.395 60.8581 212.968 65.182C214.541 69.5059 213.161 71.6678 207.071 72.0637C201.895 72.3986 203.498 78.2653 198.697 81.3509C198.387 81.5612 198.024 81.6813 197.649 81.698C197.275 81.7147 196.903 81.6272 196.575 81.4454C196.247 81.2635 195.976 80.9943 195.791 80.6677C195.607 80.3411 195.517 79.9698 195.53 79.595Z" fill="#24285B"/>
<path d="M200.848 207.455H193.459V239.559H200.848V207.455Z" fill="#FFD200"/>
<path opacity="0.08" d="M200.848 207.455H193.459V239.559H200.848V207.455Z" fill="black"/>
<path d="M193.459 239.559L179.168 252.754H216.256L200.838 239.559H193.459Z" fill="#FFD200"/>
<path d="M317.837 188.556H290.432V236.007H317.837V188.556Z" fill="#A5A5A5"/>
<path d="M284.007 182.029H277.582V246.552H284.007V182.029Z" fill="#E6E6E6"/>
<path d="M331.204 182.029H324.779V246.552H331.204V182.029Z" fill="#E6E6E6"/>
<path d="M331.214 236.007H283.377V246.543H331.214V236.007Z" fill="#E6E6E6"/>
<path d="M78.2975 182.029H64.7676V246.552H78.2975V182.029Z" fill="#E6E6E6"/>
<path opacity="0.42" d="M116.867 228.303H78.2969V236.007H116.867V228.303Z" fill="#A5A5A5"/>
<path d="M136.395 235.702H78.2969V246.542H136.395V235.702Z" fill="#A5A5A5"/>
<path d="M154.615 85.8374H137.086V88.8316H154.615V85.8374Z" fill="#16A34A"/>
<path d="M134.539 143.053C136.619 143.053 138.305 141.367 138.305 139.287C138.305 137.207 136.619 135.521 134.539 135.521C132.459 135.521 130.773 137.207 130.773 139.287C130.773 141.367 132.459 143.053 134.539 143.053Z" fill="#A5A5A5"/>
<path d="M229.776 78.5195C230.555 78.5195 231.187 77.8878 231.187 77.1086C231.187 76.3294 230.555 75.6978 229.776 75.6978C228.997 75.6978 228.365 76.3294 228.365 77.1086C228.365 77.8878 228.997 78.5195 229.776 78.5195Z" fill="white"/>
<path d="M339.933 55.0527H300.602V82.0923H339.933V55.0527Z" fill="#FFD200"/>
<path d="M314.985 73.8805C314.782 73.8814 314.585 73.8134 314.427 73.6877L308.56 69.0288C308.453 68.9433 308.367 68.8352 308.308 68.7123C308.248 68.5895 308.216 68.4549 308.215 68.3183C308.214 68.181 308.244 68.0452 308.302 67.9206C308.36 67.796 308.444 67.6858 308.55 67.5977L314.447 62.8576C314.636 62.7143 314.874 62.6503 315.109 62.6791C315.345 62.708 315.56 62.8274 315.709 63.0121C315.858 63.1968 315.93 63.4323 315.908 63.6687C315.887 63.9051 315.774 64.1239 315.594 64.2786L310.58 68.3386L315.584 72.287C315.679 72.3603 315.758 72.4519 315.817 72.5562C315.876 72.6605 315.914 72.7755 315.928 72.8945C315.942 73.0136 315.932 73.1342 315.899 73.2495C315.866 73.3647 315.811 73.4723 315.736 73.5659C315.645 73.6741 315.529 73.7591 315.398 73.8138C315.268 73.8685 315.126 73.8914 314.985 73.8805Z" fill="white"/>
<path d="M325.662 73.8808C325.525 73.8816 325.39 73.8509 325.267 73.7911C325.144 73.7312 325.036 73.6438 324.952 73.5357C324.877 73.4421 324.821 73.3346 324.789 73.2193C324.756 73.1041 324.746 72.9834 324.76 72.8644C324.774 72.7453 324.812 72.6303 324.871 72.526C324.93 72.4217 325.009 72.3302 325.104 72.2568L330.098 68.3085L325.094 64.2485C324.988 64.1784 324.898 64.087 324.83 63.9803C324.762 63.8735 324.716 63.7537 324.697 63.6284C324.677 63.5031 324.684 63.3751 324.716 63.2526C324.749 63.13 324.807 63.0156 324.886 62.9166C324.965 62.8175 325.064 62.7361 325.176 62.6774C325.289 62.6187 325.412 62.5841 325.539 62.5757C325.665 62.5673 325.792 62.5854 325.911 62.6287C326.03 62.6721 326.139 62.7397 326.231 62.8275L332.138 67.5675C332.244 67.6556 332.328 67.7658 332.386 67.8904C332.444 68.015 332.474 68.1508 332.473 68.2882C332.472 68.4247 332.44 68.5593 332.38 68.6822C332.321 68.805 332.234 68.9131 332.128 68.9987L326.231 73.6575C326.073 73.7949 325.872 73.8738 325.662 73.8808Z" fill="white"/>
<path d="M317.858 73.8806C317.725 73.883 317.593 73.8552 317.472 73.7994C317.254 73.6979 317.084 73.5139 317 73.2876C316.916 73.0613 316.926 72.8111 317.026 72.5916L321.319 63.1825C321.369 63.0732 321.44 62.9748 321.528 62.893C321.616 62.8111 321.72 62.7474 321.832 62.7055C321.945 62.6635 322.065 62.6442 322.185 62.6485C322.305 62.6529 322.423 62.6809 322.532 62.7309C322.641 62.7808 322.74 62.8519 322.822 62.9399C322.904 63.0279 322.967 63.1311 323.009 63.2438C323.051 63.3564 323.07 63.4762 323.066 63.5963C323.062 63.7164 323.034 63.8345 322.984 63.9438L318.711 73.3528C318.638 73.516 318.517 73.6536 318.365 73.7477C318.213 73.8418 318.037 73.8881 317.858 73.8806Z" fill="white"/>
<path opacity="0.58" d="M95.4098 216.813C95.4098 216.813 86.0616 214.255 84.0215 205.557C84.0215 205.557 98.5157 202.633 98.9217 217.584L95.4098 216.813Z" fill="#16A34A"/>
<path opacity="0.73" d="M96.5068 215.93C96.5068 215.93 89.9702 205.597 95.7253 195.945C95.7253 195.945 106.738 202.938 101.815 215.95L96.5068 215.93Z" fill="#16A34A"/>
<path d="M98.1914 215.93C98.1914 215.93 101.642 205.029 112.077 202.958C112.077 202.958 114.025 210.063 105.317 215.961L98.1914 215.93Z" fill="#16A34A"/>
<path d="M91.4102 215.646L93.2981 228.618L105.234 228.668L107.001 215.717L91.4102 215.646Z" fill="#24285B"/>
<path d="M308.774 202.928C310.713 202.928 312.286 201.356 312.286 199.416C312.286 197.477 310.713 195.904 308.774 195.904C306.834 195.904 305.262 197.477 305.262 199.416C305.262 201.356 306.834 202.928 308.774 202.928Z" fill="white"/>
<path opacity="0.18" d="M314.224 207.455H295.111V231.439H314.224V207.455Z" fill="white"/>
</svg>
